<?xml version="1.0" encoding="UTF-8" standalone="no"?>
<!DOCTYPE svg PUBLIC "-//W3C//DTD SVG 1.1//EN" "http://www.w3.org/Graphics/SVG/1.1/DTD/svg11.dtd">
<svg width="100%" height="100%" viewBox="0 0 512 35" version="1.1" xmlns="http://www.w3.org/2000/svg" xmlns:xlink="http://www.w3.org/1999/xlink" xml:space="preserve" xmlns:serif="http://www.serif.com/" style="fill-rule:evenodd;clip-rule:evenodd;stroke-linejoin:round;stroke-miterlimit:2;">

	<defs>
		<filter id="sofGlow" height="200%" width="200%" x="-50%" y="-50%">
			<!-- Thicken out the original shape -->
			<feMorphology operator="dilate" radius="1" in="SourceAlpha" result="thicken" />
			<!-- Use a gaussian blur to create the soft blurriness of the glow -->
			<feGaussianBlur in="thicken" stdDeviation="2" result="blurred" />
			<!-- Change the colour -->
			<feFlood flood-color="#7898" result="glowColor" />
			<!-- Color in the glows -->
			<feComposite in="glowColor" in2="blurred" operator="in" result="softGlow_colored" />
			<!-- Layer the effects together -->
			<feMerge>
				<feMergeNode in="softGlow_colored"/>
				<feMergeNode in="SourceGraphic"/>
			</feMerge>
		</filter>
	</defs>

	<g filter="url(#sofGlow)">
		<g transform="matrix(5,0,0,5,13,-50)">
			<path d="M15,12L13,11L11,11L11,12L12,12L14,13L14,14L12,15L11,15L11,16L13,16L15,15L16,15L18,16L20,16L20,15L19,15L17,14L17,13L19,12L20,12L20,11L18,11L16,12L15,12Z"/>
		</g>
		<g transform="matrix(5,0,0,5,8,-50)">
			<path d="M3,14L3,14.5L4,15L10,15L10,16L3,16L1,15L1,12L3,11L10,11L10,12L4,12L3,12.5L3,13L6,13L6,14L3,14Z"/>
		</g>
		<g transform="matrix(5,0,0,5,8,-50)">
			<path d="M27,11L27,12L26,12L25,12.5L25,14.5L26,15L27,15L27,16L25,16L23,15L23,12L25,11L27,11ZM28,11L30,11L32,12L32,15L30,16L28,16L28,15L29,15L30,14.5L30,12.5L29,12L28,12L28,11Z"/>
		</g>
		<g transform="matrix(5,0,0,5,118,-50)">
			<path d="M27,11L27,12L26,12L25,12.5L25,14.5L26,15L27,15L27,16L25,16L23,15L23,12L25,11L27,11ZM28,11L30,11L32,12L32,15L30,16L28,16L28,15L29,15L30,14.5L30,12.5L29,12L28,12L28,11Z"/>
		</g>
		<g transform="matrix(5,0,0,5,173,-80)">
			<path d="M1,17L3,17L3,20L4,20.5L5.5,19.5L7,20.5L8,20L8,17L10,17L10,20.5L7,22L5.5,21L4,22L1,20.5L1,17Z"/>
		</g>
		<g transform="matrix(5,0,0,5,338,-80)">
			<path d="M32,17L25,17L23,18L23,19L25,20L29,20L30,20.5L29,21L23,21L23,22L30,22L32,21L32,20L30,19L26,19L25,18.5L26,18L32,18L32,17Z"/>
		</g>
		<g transform="matrix(5,0,0,5,338,-110)">
			<path d="M1,23L3,23L3,27L10,27L10,28L1,28L1,23Z"/>
		</g>
		<g transform="matrix(5,0,0,5,338,-110)">
			<path d="M12,23L19,23L21,24L21,27L19,28L12,28L12,25L14,25L14,27L18,27L19,26.5L19,24.5L18,24L12,24L12,23Z"/>
		</g>
		<g transform="matrix(5,0,0,5,228,-110)">
			<path d="M12,23L19,23L21,24L21,25L19,26L21,27L21,28L19,28L19,27L17,26L14,26L14,28L12,28L12,25L18,25L19,24.5L18,24L12,24L12,23Z"/>
		</g>
	</g>
</svg>
