<?xml version="1.0" encoding="UTF-8" standalone="no"?>
<!DOCTYPE svg PUBLIC "-//W3C//DTD SVG 1.1//EN" "http://www.w3.org/Graphics/SVG/1.1/DTD/svg11.dtd">
<svg width="100%" height="100%" viewBox="0 0 134 5" version="1.1" xmlns="http://www.w3.org/2000/svg" xmlns:xlink="http://www.w3.org/1999/xlink" xml:space="preserve" xmlns:serif="http://www.serif.com/" style="fill-rule:evenodd;clip-rule:evenodd;stroke-linejoin:round;stroke-miterlimit:2;fill:#98a0a8;fill-opacity:0.66;">
	<path d="M15,1l-2,-1l-2,0l0,1l1,0l2,1l0,1l-2,1l-1,0l0,1l2,0l2,-1l1,0l2,1l2,0l0,-1l-1,0l-2,-1l0,-1l2,-1l1,0l0,-1l-2,0l-2,1l-1,0Z"/>
	<path d="M2,3l0,0.5l1,0.5l6,0l0,1l-7,0l-2,-1l0,-3l2,-1l7,0l0,1l-6,0l-1,0.5l0,0.5l3,0l0,1l-3,0Z"/>
	<path d="M26,0l0,1l-1,0l-1,0.5l0,2l1,0.5l1,0l0,1l-2,0l-2,-1l0,-3l2,-1l2,0Zm1,0l2,0l2,1l0,3l-2,1l-2,0l0,-1l1,0l1,-0.5l0,-2l-1,-0.5l-1,0l0,-1Z"/>
	<path d="M48,0l0,1l-1,0l-1,0.5l0,2l1,0.5l1,0l0,1l-2,0l-2,-1l0,-3l2,-1l2,0Zm1,0l2,0l2,1l0,3l-2,1l-2,0l0,-1l1,0l1,-0.5l0,-2l-1,-0.5l-1,0l0,-1Z"/>
	<path d="M33,0l2,0l0,3l1,0.5l1.5,-1l1.5,1l1,-0.5l0,-3l2,0l0,3.5l-3,1.5l-1.5,-1l-1.5,1l-3,-1.5l0,-3.5Z"/>
	<path d="M97,0l-7,0l-2,1l-0,1l2,1l4,0l1,0.5l-1,0.5l-6,0l-0,1l7,0l2,-1l-0,-1l-2,-1l-4,0l-1,-0.5l1,-0.5l6,0l-0,-1Z"/>
	<rect x="99" y="4" width="2" height="1"/>
	<path d="M66,0l2,0l0,4l7,0l0,1l-9,0l0,-5Z"/>
	<path d="M77,0l7,0l2,1l0,3l-2,1l-7,0l0,-3l2,0l0,2l4,0l1,-0.5l0,-2l-1,-0.5l-6,0l0,-1Z"/>
	<path d="M55,0l7,0l2,1l0,1l-2,1l2,1l0,1l-2,0l0,-1l-2,-1l-3,0l0,2l-2,0l0,-3l6,0l1,-0.5l-1,-0.5l-6,0l0,-1Z"/>
	<path d="M116,3l0,0.5l1,0.5l6,0l0,1l-7,0l-2,-1l0,-3l2,-1l7,0l0,1l-6,0l-1,0.5l0,0.5l3,0l0,1l-3,0Z"/>
	<path d="M125,0l9,0l0,1l-3.5,0l0,4l-2.004,0l0.014,-4l-3.51,0l0,-1Z"/>
	<path d="M103,5l0,-5l2.517,0l3.483,3l1,0l0,-3l2,0l0,5l-2.456,0l-3.544,-3l-1,0l0,3l-2,0Z"/>
</svg>