<?xml version="1.0" encoding="UTF-8" standalone="no"?>
<svg xmlns="http://www.w3.org/2000/svg" version="1.1"
	width="100%"
	height="100%"
	viewBox="0 0 64 64"
	style="fill-rule:evenodd">
	<path
		d="m 30,16.084 c -1.792,0.3 -3.7,1.38 -5.364,3.184 C 22.052,22.064 20,26.624 20,32 c 0,9.3 5.024,16 12,16 3.244,0 5.38,-1.064 8,-3.332 0,0 0,15.332 0,15.332 0,1.104 0.896,2 2,2 1.104,0 2,-0.896 2,-2 V 40 c 0,-0.808 -0.488,-1.54 -1.236,-1.848 -0.744,-0.308 -1.608,-0.14 -2.18,0.432 C 37.104,42.068 35.48,44 32,44 26.972,44 24,38.708 24,32 24,27.776 25.548,24.176 27.572,21.98 28.352,21.14 29.176,20.492 30,20.192 V 38 c 0,0.808 0.488,1.54 1.236,1.848 0.744,0.308 1.608,0.14 2.18,-0.432 2.508,-2.508 5,-5.032 6.604,-7.536 C 41.272,29.924 42,27.952 42,26 42,21.784 39.38,17.476 34,16.308 V 4 C 34,2.896 33.104,2 32,2 30.896,2 30,2.896 30,4 Z m 4,4.412 V 33.072 C 34.688,32.316 35.332,31.556 35.9,30.8 37.108,29.188 38,27.612 38,26 38,23.692 36.636,21.46 34,20.496 Z"
		style="fill:#98a0a8;fill-opacity:0.66;" />
</svg>
